{"AssetRegistry":[{"AudioCoverPath":"cache/402.png","AudioCoverResolution":[1000.0,1000.0],"FFProbeData":"Input #0, mp3, from '/media/corgifist/Stuff/ProgrammingProjects/Electron/g_hooker_cover.mp3':\n  Metadata:\n    artist          : Lady Gaga\n    title           : Government Hooker\n    encoder         : Lavf60.3.100\n  Duration: 00:04:14.30, start: 0.025056, bitrate: 348 kb/s\n  Stream #0:0: Audio: mp3, 44100 Hz, stereo, fltp, 320 kb/s\n    Metadata:\n      encoder         : LAME3.99r\n    Side data:\n      replaygain: track gain - -7.700000, track peak - unknown, album gain - unknown, album peak - unknown, \n  Stream #0:1: Video: png, rgb24(pc), 1000x1000, 90k tbr, 90k tbn (attached pic)\n    Metadata:\n      title           : Government Hooker\n      comment         : Other\n\n","ID":1290933578,"InternalName":"LadyGaga","Path":"cache/404.wav","Type":"Audio"},{"AudioCoverPath":"cache/406.png","AudioCoverResolution":[200.0,200.0],"FFProbeData":"Input #0, mp3, from '/media/corgifist/Stuff/ProgrammingProjects/Electron/misc/stereo-test.mp3':\n  Metadata:\n    album           : Test Sounds\n    title           : Stereo Test\n    artist          : Test\n    album_artist    : alsa-utils\n  Duration: 00:00:16.81, start: 0.034531, bitrate: 98 kb/s\n  Stream #0:0: Audio: mp3, 32000 Hz, stereo, fltp, 96 kb/s\n    Metadata:\n      encoder         : LAME3.99r\n    Side data:\n      replaygain: track gain - 1.200000, track peak - unknown, album gain - unknown, album peak - unknown, \n  Stream #0:1: Video: png, pal8(pc), 200x200 [SAR 11811:11811 DAR 1:1], 90k tbr, 90k tbn (attached pic)\n    Metadata:\n      comment         : Cover (front)\n\n","ID":436953582,"InternalName":"StereoTest","Path":"cache/408.wav","Type":"Audio"},{"AudioCoverPath":"","FFProbeData":"Input #0, image2, from '/media/corgifist/Stuff/ProgrammingProjects/Electron/misc/download.jpeg':\n  Duration: 00:00:00.04, start: 0.000000, bitrate: 613 kb/s\n  Stream #0:0: Video: mjpeg (Baseline), yuvj420p(pc, bt470bg/unknown/unknown), 153x148 [SAR 1:1 DAR 153:148], 25 fps, 25 tbr, 25 tbn\n\n","ID":1245806912,"InternalName":"CorgiPNG","Path":"/media/corgifist/Stuff/ProgrammingProjects/Electron/misc/download.jpeg","Type":"Image"},{"AudioCoverPath":"","FFProbeData":"Input #0, png_pipe, from '/media/corgifist/Stuff/ProgrammingProjects/Electron/cache/398.png':\n  Duration: N/A, bitrate: N/A\n  Stream #0:0: Video: png, rgb24(pc), 1000x1000, 25 fps, 25 tbr, 25 tbn\n\n","ID":1948617898,"InternalName":"LadyGaga Cover","Path":"/media/corgifist/Stuff/ProgrammingProjects/Electron/cache/398.png","Type":"Image"}],"AssetSearch":"","AssetSelected":2,"BackgroundColor":[1.0,0.911392331123352,0.0],"Framerate":60,"LastAssetPreviewScale":1.0,"LastColorBuffer":3,"LastSelectedLayer":1404582203,"LegendWidth":0.18284904956817627,"LoopPlayback":true,"Playing":false,"PreviewResolution":0,"ProjectName":"TimeShiftTest","ProjectResolution":[1280,720],"RenderPreviewScale":0.699999988079071,"TimelineValue":0.0,"TimelineZoom":3.4599995613098145}